# xmcd CD database file
#
# Track frame offsets:
#	150
#	17874
#	38519
#	57085
#	75432
#	94096
#	112020
#	135137
#	156058
#	178534
#	198432
#
# Disc length: 2906 seconds
#
# Revision: 6
# Processed by: cddbd v1.5.2PL0 Copyright (c) Steve Scherf et al.
# Submitted via: CDex 1.51
#
DISCID=7b0b580b
DTITLE=ALVIN LEE - Zoom
DYEAR=1992
DGENRE=Blues Rock
TTITLE0=A Little Bit Of Love
TTITLE1=Real Life Blues
TTITLE2=The Price Of The Love
TTITLE3=Moving The Blues
TTITLE4=Lost In Love
TTITLE5=Wake Up Mona
TTITLE6=It Don't Come Easy
TTITLE7=Remember Me
TTITLE8=Anything For You
TTITLE9=Jenny, Jenny
TTITLE10=Use That Power
EXTD=Seagull 111102-SG\nSeagull Music Scandinavia as, Vettre, Norway\nAlvin Lee, guitar, vocals and drums\nSteve Gould: bass and vocals\nSteve Grant: bass, vocals and keys\nAlan Young: drums\n\nGuests on vol 2\nClarence Clemons: tenor sax on 4, 6, 10, 11\nBill
EXTD=ie Dixon: bass on 6\nGeorge Harrison: slide guitar on 2\nJimmie Johnson: piano on 6\nJohn Lord: Hammond organ on 2, 6\nRichard Newman: drums on 9, 10, 11\nDeena Payne: backing vocals on 1, 3, 4, 9, 11\nTim Hinkley: piano on 4\nTim Hinkley: keys and ba
EXTD=cking vocals on 11\nDon Reddal: backing vocal on 11 YEAR: 1992
EXTT0=(Alvin Lee)
EXTT1=(Alvin Lee)
EXTT2=(Alvin Lee)
EXTT3=(Alvin Lee)
EXTT4=(Alvin Lee/Steve Gould)
EXTT5=(Alvin Lee)
EXTT6=(Alvin Lee)
EXTT7=(Alvin Lee)
EXTT8=(Alvin Lee/Sideman)
EXTT9=(Alvin Lee/Steve Gould)
EXTT10=(Alvin Lee/Tim Hinkley)
PLAYORDER=
